<?xml version="1.0" encoding="UTF-8" standalone="no"?>
<!DOCTYPE svg PUBLIC "-//W3C//DTD SVG 1.1//EN" "http://www.w3.org/Graphics/SVG/1.1/DTD/svg11.dtd">
<svg width="100%" height="100%" viewBox="0 0 166 115" version="1.1" xmlns="http://www.w3.org/2000/svg" xmlns:xlink="http://www.w3.org/1999/xlink" xml:space="preserve" xmlns:serif="http://www.serif.com/" style="fill-rule:evenodd;clip-rule:evenodd;stroke-linejoin:round;stroke-miterlimit:2;">
    <g transform="matrix(1,0,0,1,-850.484876,-879.983374)">
        <g transform="matrix(0.099493,0,0,0.099493,840.167843,843.910807)">
            <rect x="613.434" y="620.708" width="674.05" height="601.311" style="fill:rgb(235,235,235);"/>
            <g id="Fondo" transform="matrix(1.623047,0,0,1.623047,102,361)">
                <path d="M827.5,708.999L196.5,708.999C196.01,708.894 195.912,708.057 195.423,707.952C190.502,706.898 177.478,708.382 145.389,697.847C143.339,697.173 127.505,691.975 120.34,687.817C119.249,687.184 107.741,682.506 93.457,672.568C76.13,660.512 70.094,655.966 52.419,636.581C51.491,635.508 51.529,635.547 50.5,634.5C46.914,630.457 47.241,630.305 43.66,626.362C43.263,625.749 42.865,625.135 42.467,624.522C41.427,623.222 34.924,615.096 30.669,607.384C30.307,606.743 29.946,606.103 29.584,605.462C8.239,567.268 6.405,549.107 3.184,530.551C0.773,516.658 1.055,516.627 1.055,227.5C1.055,187.404 1.787,187.446 6.602,160.513C6.806,159.814 7.009,159.116 7.212,158.418C10.503,147.519 10.319,147.484 10.621,146.543C12.784,139.817 12.984,139.968 13.162,139.387C17.884,123.959 29.94,103.435 30.597,102.555C30.953,101.909 31.309,101.264 31.666,100.618C32.159,99.991 33.63,97.964 33.798,97.732C48.603,77.332 47.558,76.405 72.359,53.349C72.528,53.198 73.416,52.401 74.469,51.458C78.567,48.006 78.666,48.234 82.635,44.659C83.253,44.267 83.871,43.875 84.489,43.483C132.399,7.369 184.356,2.896 185.545,2.687C196.025,0.841 196.095,1.055 696.5,1.055C831.18,1.055 844.762,-0.997 885.585,14.295C910.895,23.776 910.168,25.868 913.721,27.108C917.987,28.598 935.033,40.109 939.509,43.486C940.127,43.878 940.746,44.269 941.364,44.66C954.119,56.138 954.862,55.286 972.345,73.64C972.759,74.239 973.172,74.838 973.586,75.437C977.391,79.931 977.251,80.034 977.609,80.399C986.24,89.181 996.663,108.177 998.072,110.744C1014.83,141.287 1019.168,169.757 1019.589,171.479C1023.433,187.198 1022.926,187.415 1022.926,406.5C1022.926,518.185 1023.525,518.384 1017.605,547.524C1010.631,581.852 989.473,614.632 981.52,624.514C981.125,625.129 980.73,625.743 980.335,626.358C976.74,630.313 977.058,630.49 973.491,634.493C972.463,635.532 972.533,635.456 971.572,636.573C963.635,645.254 963.852,645.348 955.231,653.211C952.317,655.87 936.265,670.511 915.246,682.06C881.088,700.828 850.503,705.135 844.594,705.967C829.866,708.041 829.839,707.683 828.577,707.953C828.088,708.058 827.989,708.894 827.5,708.999ZM371.897,219.538C376.298,205.483 388.312,211.388 389.698,212.069C393.777,214.074 438.218,235.918 440.59,237.317C447.741,241.536 448.311,240.309 455.432,244.64C457.23,245.734 459.173,246.361 460.675,247.154C479.175,256.912 506.618,270.287 510.639,272.246C581.392,306.729 580.942,307.511 651.695,342.074C669.898,350.966 669.711,351.371 671.759,354.345C679.862,366.114 657.82,372.889 656.569,373.615C654.589,374.764 642.517,380.045 640.388,381.276C637.572,382.903 634.863,383.976 634.366,384.173C622.842,388.74 573.037,412.443 567.735,414.966C513.426,440.813 513.082,439.981 508.566,442.608C506.837,443.614 404.311,491.143 389.406,498.289C378.027,503.743 372.712,494.446 371.992,491.391C371.692,490.119 371.862,226.11 371.897,219.538Z" style="fill:rgb(195,27,26);fill-opacity:1;"/>
                <path d="M973.491,634.493C973.065,636.045 973.031,636.077 971.572,636.573C972.533,635.456 972.463,635.532 973.491,634.493Z" style="fill:rgb(176,24,23);fill-opacity:0.27;"/>
                <path d="M50.5,634.5C51.529,635.547 51.491,635.508 52.419,636.581C50.966,636.07 50.938,636.036 50.5,634.5Z" style="fill:rgb(174,24,23);fill-opacity:0.28;"/>
                <path d="M74.469,51.458C73.416,52.401 72.528,53.198 72.359,53.349C72.504,53.176 71.904,52.285 74.469,51.458Z" style="fill:rgb(166,23,22);fill-opacity:0.33;"/>
                <path d="M31.666,100.618C31.309,101.264 30.953,101.909 30.597,102.555C30.953,101.909 31.309,101.264 31.666,100.618Z" style="fill:rgb(170,23,22);fill-opacity:0.31;"/>
                <path d="M29.584,605.462C29.946,606.103 30.307,606.743 30.669,607.384C30.307,606.743 29.946,606.103 29.584,605.462Z" style="fill:rgb(167,23,22);fill-opacity:0.32;"/>
                <path d="M981.52,624.514C981.125,625.129 980.73,625.743 980.335,626.358C980.73,625.743 981.125,625.129 981.52,624.514Z" style="fill:rgb(167,23,22);fill-opacity:0.31;"/>
                <path d="M939.509,43.486C940.127,43.878 940.746,44.269 941.364,44.66C940.746,44.269 940.127,43.878 939.509,43.486Z" style="fill:rgb(166,23,22);fill-opacity:0.32;"/>
                <path d="M84.489,43.483C83.871,43.875 83.253,44.267 82.635,44.659C83.253,44.267 83.871,43.875 84.489,43.483Z" style="fill:rgb(165,22,22);fill-opacity:0.33;"/>
                <path d="M42.467,624.522C42.865,625.135 43.263,625.749 43.66,626.362C43.263,625.749 42.865,625.135 42.467,624.522Z" style="fill:rgb(165,22,22);fill-opacity:0.32;"/>
                <path d="M972.345,73.64C972.471,73.785 972.84,73.43 973.586,75.437C973.172,74.838 972.759,74.239 972.345,73.64Z" style="fill:rgb(162,22,21);fill-opacity:0.32;"/>
                <path d="M7.212,158.418C7.009,159.116 6.806,159.814 6.602,160.513C6.806,159.814 7.009,159.116 7.212,158.418Z" style="fill:rgb(164,22,21);fill-opacity:0.31;"/>
            </g>
        </g>
    </g>
</svg>
